<?xml version="1.0" standalone="no"?>
<!DOCTYPE svg PUBLIC "-//W3C//DTD SVG 20010904//EN"
 "http://www.w3.org/TR/2001/REC-SVG-20010904/DTD/svg10.dtd">
<svg version="1.0" xmlns="http://www.w3.org/2000/svg"
 width="378.000000pt" height="122.000000pt" viewBox="0 0 378.000000 122.000000"
 preserveAspectRatio="xMidYMid meet">

<g transform="translate(0.000000,122.000000) scale(0.100000,-0.100000)"
fill="#000000" stroke="none">
<path d="M2863 813 c-23 -4 -23 -5 -23 -214 l0 -209 40 0 40 0 0 215 c0 235 4
220 -57 208z"/>
<path d="M1268 780 c-122 -65 -125 -305 -4 -376 36 -21 134 -24 189 -5 l37 13
0 104 0 104 -75 0 -75 0 0 -35 c0 -33 2 -35 36 -35 l35 0 -3 -47 c-3 -45 -5
-48 -32 -51 -78 -9 -106 28 -106 140 0 123 48 169 139 132 42 -17 42 -16 59 7
21 30 21 29 -19 51 -45 24 -133 23 -181 -2z"/>
<path d="M1558 688 l-28 -10 0 -144 0 -144 40 0 40 0 0 104 c0 110 7 128 52
130 26 1 47 51 29 69 -9 9 -21 7 -51 -10 -39 -21 -40 -21 -40 -2 0 21 -3 22
-42 7z"/>
<path d="M1790 689 c-101 -21 -134 -182 -55 -268 32 -34 37 -36 97 -36 44 0
72 5 91 18 26 17 26 19 11 42 -15 23 -18 23 -37 10 -45 -32 -117 -8 -117 38 0
15 12 17 85 17 l85 0 0 40 c0 46 -19 99 -43 118 -24 20 -77 29 -117 21z m62
-66 c10 -9 18 -24 18 -35 0 -15 -8 -18 -45 -18 -50 0 -59 17 -28 52 20 22 31
23 55 1z"/>
<path d="M2066 690 c-85 -26 -122 -138 -77 -236 31 -68 121 -94 197 -58 36 17
41 29 21 55 -11 15 -16 15 -37 3 -51 -27 -110 -6 -110 39 0 15 12 17 86 17
l87 0 -6 55 c-7 64 -36 112 -75 121 -15 3 -34 7 -42 9 -8 2 -28 -1 -44 -5z
m70 -75 c21 -32 11 -45 -37 -45 -32 0 -39 4 -39 19 0 23 25 51 45 51 8 0 22
-11 31 -25z"/>
<path d="M2288 688 l-28 -10 0 -144 0 -144 40 0 40 0 0 105 c0 100 1 105 25
121 48 31 55 16 55 -111 l0 -115 40 0 40 0 0 130 c0 117 -2 132 -20 150 -25
25 -95 27 -128 4 -21 -14 -22 -14 -22 5 0 23 -3 24 -42 9z"/>
<path d="M2573 693 c-23 -4 -23 -4 -23 -219 l0 -214 28 6 c41 10 42 11 42 68
l0 52 56 0 c52 -1 58 2 90 36 33 36 34 41 34 116 0 56 -5 84 -17 102 -31 46
-76 63 -126 49 -21 -6 -33 -6 -35 1 -4 10 -10 11 -49 3z m126 -72 c19 -12 26
-104 11 -140 -13 -33 -35 -42 -68 -30 -20 8 -22 15 -22 83 0 61 3 77 18 85 21
13 43 13 61 2z"/>
<path d="M3015 690 l-30 -5 -3 -129 c-2 -109 0 -132 14 -147 25 -28 80 -35
120 -15 28 13 34 13 34 2 0 -11 7 -12 28 -7 l27 7 3 152 3 151 -33 -10 c-18
-5 -34 -9 -35 -9 -2 0 -3 -47 -3 -103 0 -88 -3 -106 -18 -120 -22 -20 -48 -22
-59 -4 -4 6 -10 64 -13 127 l-5 115 -30 -5z"/>
<path d="M3283 683 c-10 -3 -13 -43 -13 -149 l0 -144 35 0 35 0 0 110 c0 107
1 111 24 122 50 22 56 9 56 -117 l0 -115 40 0 40 0 0 110 c0 100 2 110 21 120
43 23 49 9 49 -115 l0 -115 40 0 40 0 0 128 c0 156 -7 172 -79 172 -26 0 -56
-6 -66 -14 -17 -12 -22 -12 -39 0 -25 17 -98 18 -114 2 -9 -9 -12 -9 -12 0 0
12 -34 15 -57 5z"/>
</g>
</svg>
